<?xml version="1.0" encoding="UTF-8"?>
<svg id="uuid-44b4762e-4615-4321-8997-c5f038f6d4fb" data-name="Ebene 1" xmlns="http://www.w3.org/2000/svg" viewBox="0 0 305.55 77.54">
  <defs>
    <style>
      .uuid-67735e13-7c10-4b35-b927-3fd0052aa0f1 {
        fill: #f8bb19;
      }

      .uuid-47d88e7a-ef8b-48cb-9102-74b924636019 {
        fill: #1d1d1b;
      }
    </style>
  </defs>
  <polygon class="uuid-47d88e7a-ef8b-48cb-9102-74b924636019" points="81.66 36.83 53.29 60.2 41 70.33 0 37.67 41 4.67 53.61 14.64 81.66 36.83"/>
  <polygon class="uuid-67735e13-7c10-4b35-b927-3fd0052aa0f1" points="81.66 36.83 53.29 60.2 25 37.67 53.61 14.64 81.66 36.83"/>
  <polygon class="uuid-67735e13-7c10-4b35-b927-3fd0052aa0f1" points="93.33 74.17 89.16 77.54 89.16 0 93.33 0 93.33 74.17"/>
  <g>
    <path class="uuid-47d88e7a-ef8b-48cb-9102-74b924636019" d="M108.72,38.17h-5.59V11.03h5.59v27.14Z"/>
    <path class="uuid-47d88e7a-ef8b-48cb-9102-74b924636019" d="M135.97,38.17h-5.59l-10.89-17.86v17.86h-5.59V11.03h5.59l10.9,17.89V11.03h5.57v27.14Z"/>
    <path class="uuid-47d88e7a-ef8b-48cb-9102-74b924636019" d="M140.85,38.17V11.03h8.35c2.39,0,4.52.54,6.4,1.61,1.88,1.07,3.35,2.6,4.41,4.58,1.06,1.98,1.58,4.23,1.58,6.76v1.25c0,2.52-.52,4.77-1.56,6.73s-2.5,3.49-4.39,4.57c-1.89,1.08-4.02,1.63-6.39,1.64h-8.41ZM146.45,15.56v18.12h2.7c2.19,0,3.86-.71,5.01-2.14,1.16-1.43,1.75-3.47,1.77-6.13v-1.44c0-2.76-.57-4.85-1.71-6.27-1.14-1.42-2.81-2.13-5.01-2.13h-2.76Z"/>
    <path class="uuid-47d88e7a-ef8b-48cb-9102-74b924636019" d="M171.61,38.17h-5.59V11.03h5.59v27.14Z"/>
    <path class="uuid-47d88e7a-ef8b-48cb-9102-74b924636019" d="M186.82,31.44l6.15-20.41h6.22l-9.45,27.14h-5.83l-9.41-27.14h6.21l6.11,20.41Z"/>
    <path class="uuid-47d88e7a-ef8b-48cb-9102-74b924636019" d="M207.7,38.17h-5.59V11.03h5.59v27.14Z"/>
    <path class="uuid-47d88e7a-ef8b-48cb-9102-74b924636019" d="M212.88,38.17V11.03h8.35c2.39,0,4.52.54,6.4,1.61s3.35,2.6,4.41,4.58c1.05,1.98,1.58,4.23,1.58,6.76v1.25c0,2.52-.52,4.77-1.56,6.73s-2.5,3.49-4.39,4.57c-1.89,1.08-4.02,1.63-6.39,1.64h-8.41ZM218.47,15.56v18.12h2.7c2.19,0,3.86-.71,5.01-2.14,1.16-1.43,1.75-3.47,1.77-6.13v-1.44c0-2.76-.57-4.85-1.71-6.27-1.14-1.42-2.81-2.13-5.02-2.13h-2.76Z"/>
    <path class="uuid-47d88e7a-ef8b-48cb-9102-74b924636019" d="M258.23,11.03v17.88c0,2.97-.93,5.32-2.79,7.05-1.86,1.73-4.4,2.59-7.62,2.59s-5.69-.84-7.55-2.52-2.81-3.98-2.85-6.92V11.03h5.59v17.91c0,1.78.43,3.07,1.28,3.89.85.81,2.03,1.22,3.53,1.22,3.14,0,4.74-1.65,4.79-4.96V11.03h5.61Z"/>
    <path class="uuid-47d88e7a-ef8b-48cb-9102-74b924636019" d="M277.72,32.58h-9.8l-1.86,5.59h-5.95l10.1-27.14h5.18l10.16,27.14h-5.95l-1.88-5.59ZM269.43,28.05h6.79l-3.41-10.16-3.38,10.16Z"/>
    <path class="uuid-47d88e7a-ef8b-48cb-9102-74b924636019" d="M293.68,33.68h11.88v4.49h-17.47V11.03h5.59v22.65Z"/>
  </g>
  <g>
    <path class="uuid-67735e13-7c10-4b35-b927-3fd0052aa0f1" d="M112.22,59.94c0-.76-.27-1.34-.81-1.75-.54-.41-1.5-.84-2.9-1.29-1.4-.45-2.5-.9-3.31-1.33-2.22-1.2-3.33-2.81-3.33-4.84,0-1.05.3-2,.89-2.82.59-.83,1.45-1.47,2.56-1.94,1.11-.46,2.36-.7,3.75-.7s2.64.25,3.73.76c1.09.5,1.94,1.22,2.54,2.14.6.92.91,1.97.91,3.14h-4.02c0-.89-.28-1.59-.85-2.09-.56-.5-1.35-.75-2.37-.75s-1.75.21-2.29.62c-.55.42-.82.96-.82,1.64,0,.64.32,1.17.96,1.6s1.58.83,2.82,1.21c2.29.69,3.96,1.54,5,2.56,1.05,1.02,1.57,2.29,1.57,3.81,0,1.69-.64,3.02-1.92,3.98-1.28.96-3,1.44-5.17,1.44-1.5,0-2.87-.28-4.11-.83-1.23-.55-2.18-1.3-2.82-2.26s-.97-2.07-.97-3.33h4.04c0,2.16,1.29,3.23,3.86,3.23.96,0,1.7-.2,2.24-.58.54-.39.81-.93.81-1.63Z"/>
    <path class="uuid-67735e13-7c10-4b35-b927-3fd0052aa0f1" d="M125.72,54.33l4.07-8.8h4.4l-6.41,12.45v7.08h-4.09v-7.08l-6.41-12.45h4.41l4.04,8.8Z"/>
    <path class="uuid-67735e13-7c10-4b35-b927-3fd0052aa0f1" d="M145.89,59.94c0-.76-.27-1.34-.81-1.75-.54-.41-1.5-.84-2.9-1.29-1.4-.45-2.5-.9-3.31-1.33-2.22-1.2-3.33-2.81-3.33-4.84,0-1.05.3-2,.89-2.82.59-.83,1.45-1.47,2.56-1.94,1.11-.46,2.36-.7,3.75-.7s2.64.25,3.73.76c1.09.5,1.94,1.22,2.54,2.14.6.92.91,1.97.91,3.14h-4.02c0-.89-.28-1.59-.85-2.09-.56-.5-1.35-.75-2.37-.75s-1.75.21-2.29.62c-.55.42-.82.96-.82,1.64,0,.64.32,1.17.96,1.6s1.58.83,2.82,1.21c2.29.69,3.96,1.54,5,2.56,1.05,1.02,1.57,2.29,1.57,3.81,0,1.69-.64,3.02-1.92,3.98-1.28.96-3,1.44-5.17,1.44-1.5,0-2.87-.28-4.11-.83-1.23-.55-2.18-1.3-2.82-2.26s-.97-2.07-.97-3.33h4.04c0,2.16,1.29,3.23,3.86,3.23.96,0,1.7-.2,2.24-.58.54-.39.81-.93.81-1.63Z"/>
    <path class="uuid-67735e13-7c10-4b35-b927-3fd0052aa0f1" d="M167.36,48.79h-5.98v16.28h-4.03v-16.28h-5.9v-3.26h15.91v3.26Z"/>
    <path class="uuid-67735e13-7c10-4b35-b927-3fd0052aa0f1" d="M181.4,56.6h-7.73v5.23h9.07v3.23h-13.1v-19.54h13.07v3.26h-9.04v4.66h7.73v3.15Z"/>
    <path class="uuid-67735e13-7c10-4b35-b927-3fd0052aa0f1" d="M190.37,45.53l5.02,14.17,4.99-14.17h5.29v19.54h-4.04v-5.34l.4-9.22-5.27,14.56h-2.76l-5.26-14.54.4,9.21v5.34h-4.03v-19.54h5.26Z"/>
  </g>
</svg>